<svg id="图层_1" data-name="图层 1" xmlns="http://www.w3.org/2000/svg" viewBox="0 0 68.13 82.38"><defs><style>.cls-1{fill:#8a4633;}.cls-2{fill:#facb7e;}.cls-3{fill:#e89542;}.cls-4{fill:#fed48d;}.cls-5{fill:#f9aa4b;}.cls-6{fill:#ef7043;}.cls-7{fill:#ef713d;}.cls-8{fill:#feb256;}.cls-9{fill:#f8c065;}.cls-10{fill:#e79542;}.cls-11{fill:#8e4934;}.cls-12{fill:#8a492f;}.cls-13{fill:#8b4932;}.cls-14{fill:#8b4832;}.cls-15{fill:#924e38;}.cls-16{fill:#8f4a36;}.cls-17{fill:#904c37;}.cls-18{fill:#935039;}.cls-19{fill:#95523a;}.cls-20{fill:#8c4831;}.cls-21{fill:#8d4830;}.cls-22{fill:#8e4733;}.cls-23{fill:#8d4633;}.cls-24{fill:#8b4633;}.cls-25{fill:#e46c41;}.cls-26{fill:#8c4633;}.cls-27{fill:#8f4a34;}.cls-28{fill:#904b35;}.cls-29{fill:#e17c56;}.cls-30{fill:#f7a94a;}.cls-31{fill:#cc6840;}.cls-32{fill:#ca6740;}.cls-33{fill:#df6940;}.cls-34{fill:#dd6840;}.cls-35{fill:#df693b;}.cls-36{fill:#dd693b;}.cls-37{fill:#d36e4a;}</style></defs><title> 牛年宝宝</title><path class="cls-1" d="M124.82,114.27l6.66,13c.68,1.32.63,1.48-.8,1.61-3,.27-6,.47-8.93.68-2.82.21-5.64.33-8.45.63-.89.1-.83-.49-1-.87-1.32-4.13-2.6-8.28-3.9-12.42a15.75,15.75,0,0,0-1-2.9,31.14,31.14,0,0,1-2.13-6.32.75.75,0,0,1,0-.59c1.17-1.67,0-3.29-.1-4.93,0-.61-.58-1-1.15-1.1a13.16,13.16,0,0,0-9.42,1,1.58,1.58,0,0,0-.92,2c.22.95,0,2,.76,2.82a1,1,0,0,1,.06,1c-.75,2-1.52,4-2.43,6a.9.9,0,0,1-.33.34c-1.82,4.51-3.67,9-5.43,13.52a1.55,1.55,0,0,1-1.74,1.16c-6.55-.05-13.11,0-19.66-.23-.44,0-1,.11-1.19-.37s.22-.82.46-1.16c3-4.09,6-8.2,9.15-12.23a3.23,3.23,0,0,0,.68-2.58,51.66,51.66,0,0,1,1.1-15.53,78,78,0,0,1,2.51-9,1.68,1.68,0,0,0,0-1.13,12.37,12.37,0,0,1,1.25-11,4.82,4.82,0,0,0,.74-3c-.09-1.23,0-2.47,0-3.71,0-.54,0-.83-.71-.63-3.75,1.11-7-3.13-7.22-5.79-.09-1,.55-1.14,1.29-1a20.12,20.12,0,0,0,5.58.44A6.11,6.11,0,0,0,83,60a6.54,6.54,0,0,1-2.67-5A9.38,9.38,0,0,1,82,48.77c.27-.44.54-1,1.16-.84s.41.81.37,1.24c-.18,2.16,1,3.91,1.84,5.69.58,1.15,1.78,1.23,2.91.57,7.43-4.34,14.85-4.25,22.16.25,1,.59,1.56.48,2.21-.31a8.52,8.52,0,0,0,2.09-6.16c0-.43-.26-1.06.28-1.29s1,.36,1.33.77a8.53,8.53,0,0,1-.21,10.37c-.64.72-.18.83.32,1a10.74,10.74,0,0,0,6,.19,11.71,11.71,0,0,0,2.82-.89c.81-.43,1.23-.32,1.23.74,0,4-2.37,6.34-6.12,6.72-1.7.17-1.66.13-1.59,1.81a9.09,9.09,0,0,0,2,5.33,11.88,11.88,0,0,1,2.63,9.46,1.1,1.1,0,0,0,0,.7c1.91,2.93,2.27,6.37,3.21,9.62a55.71,55.71,0,0,1,2,18.17c0,.65.32,1.68-.87,1.89-.57-.51-.43-1.19-.35-1.8a39.86,39.86,0,0,0-.28-9.76,81.46,81.46,0,0,0-3.52-15.11,3,3,0,0,0-.41-1,9,9,0,0,0-1.21,4.45,40.21,40.21,0,0,1-1.46,13.84,1.87,1.87,0,0,0,.39,1.73,56.46,56.46,0,0,1,3.94,7.51A.77.77,0,0,1,124.82,114.27Z" transform="translate(-63.77 -47.86)"/><path class="cls-2" d="M91.85,114.22l2.4-6.21c.21-.56.49-1.16-.39-1.43-.39-.12-.28-.45-.28-.7a9.43,9.43,0,0,0-.21-2.37A1.27,1.27,0,0,1,94,102.1a10.08,10.08,0,0,1,5-1.67,13.33,13.33,0,0,1,4.87.2,2.24,2.24,0,0,1,1.89,2.23c.07.79.29,1.56.39,2.34.08.61.64,1.34-.47,1.71-.34.11-.14.7,0,1.09.6,2,1.17,4,1.75,6l-.69.27-.22.1c-1.16.09-2.41.16-3.73.16-1.14,0-2.21,0-3.22-.09a18.08,18.08,0,0,1-5.29-.39A9.74,9.74,0,0,0,91.85,114.22Z" transform="translate(-63.77 -47.86)"/><path class="cls-3" d="M124.82,114.27c-1.09-2.13-2.25-4.22-3.23-6.39-.46-1-1.67-1.67-1.57-2.87a26.56,26.56,0,0,1,.77-3.35,39.39,39.39,0,0,0,.68-12.44.94.94,0,0,1,.11-.68,16.39,16.39,0,0,0,1.51-3.36,16.44,16.44,0,0,1,1.61,4.43c.77,3.28,1.89,6.48,2.33,9.83.53,4.13,1.23,8.25.65,12.45a11.1,11.1,0,0,0,0,1.91C126.85,114.63,125.75,114,124.82,114.27Z" transform="translate(-63.77 -47.86)"/><path class="cls-4" d="M101.23,67.52c3.73.17,7.57.23,11.23,1.45,5.4,1.8,9,5.48,10.05,11.09.78,4.14-.83,7.76-3.71,10.77-3.72,3.9-8.45,5.9-13.63,6.83a28.84,28.84,0,0,1-16.93-1.85,18.15,18.15,0,0,1-8.47-6.76A12.23,12.23,0,0,1,81,74.15a17.31,17.31,0,0,1,11.57-5.94C95.43,67.85,98.28,67.63,101.23,67.52Z" transform="translate(-63.77 -47.86)"/><path class="cls-5" d="M117.94,70.8c-2.54-2.17-5.57-3-8.69-3.44a55.42,55.42,0,0,0-20.37.78,14.58,14.58,0,0,0-7.13,4.12l-1,.91C79.41,68.3,82,61.33,86.61,57.67c6.75-5.33,14.16-6.12,21.79-2.19C114.49,58.61,117.67,63.84,117.94,70.8Z" transform="translate(-63.77 -47.86)"/><path class="cls-6" d="M93.55,107.5c-2.65,6.67-5.28,13.25-7.88,19.83a1.07,1.07,0,0,1-1.22.83c-6.19-.32-12.38-.23-18.58-.25-.25,0-.62.15-.74-.19s.25-.57.42-.81q4.2-5.73,8.44-11.42c1.82-2.46,3.66-4.91,5.45-7.4a1.56,1.56,0,0,1,1.44-.8c3.68,0,7.36,0,11,0A15.62,15.62,0,0,1,93.55,107.5Z" transform="translate(-63.77 -47.86)"/><path class="cls-7" d="M130.93,128.13c-2.81.17-5.51.32-8.2.52s-5.46.44-8.18.69c-.84.08-1.39,0-1.69-1q-3-9.91-6.19-19.78c-.25-.77-.2-1,.65-1.1,1.66-.3,3.33-.15,5-.32,2.37-.25,4.77-.25,7.14-.5.67-.07.77.47,1,.87q3.63,7.08,7.23,14.16c.91,1.77,1.84,3.53,2.75,5.3C130.58,127.32,130.73,127.68,130.93,128.13Z" transform="translate(-63.77 -47.86)"/><path class="cls-8" d="M120.62,90a42.55,42.55,0,0,1-1.37,14.66c-.21.74-.4,1.19-1.37,1.24-3.13.13-6.27.39-9.4.66-.89.08-1.24-.23-1.42-1.09-.46-2.21-.59-4.47-1-6.7-.1-.63.4-.53.77-.62a27.38,27.38,0,0,0,9.66-4.26A19.88,19.88,0,0,0,120.62,90Z" transform="translate(-63.77 -47.86)"/><path class="cls-8" d="M79.7,90.48a22,22,0,0,0,11.41,7.25,1.28,1.28,0,0,1,1,1.35c.19,2,.4,4,.5,6,.06,1.26-.35,1.52-1.53,1.49-2.79-.09-5.59-.08-8.39,0a1.35,1.35,0,0,1-1.61-1.15C79.65,100.63,79.52,95.7,79.7,90.48Z" transform="translate(-63.77 -47.86)"/><path class="cls-3" d="M78.36,88.49A2,2,0,0,1,79,90.16c.12,2.27-.34,4.51-.07,6.8a42.87,42.87,0,0,0,1.47,8.65c.17.49.43,1-.48,1-.42,0-.66.53-.93.88-1.28,1.72-2.57,3.42-4,5.27A60.43,60.43,0,0,1,78.36,88.49Z" transform="translate(-63.77 -47.86)"/><path class="cls-9" d="M125.69,60.13A6.58,6.58,0,0,1,119.85,64c.61,1.25,1.78,1.08,4.76-.68-.51,1.35-2.47,2.54-4.46,2.72-1.81.16-1.83.16-2.47-1.55a26,26,0,0,0-1.91-3.74A14.65,14.65,0,0,0,125.69,60.13Z" transform="translate(-63.77 -47.86)"/><path class="cls-9" d="M74.59,66.13c1.46.31,2.77.83,4.07,0a23.69,23.69,0,0,1-4-1c-.68-.27-1.46-.48-1.76-1.3-.13-.37-.42-.79-.16-1.13s.75-.16,1.13-.11c1,.14,2,.32,3.07.41a10.49,10.49,0,0,0,4.83-.88c-.73,1.64-1.27,3.19-1.8,4.73-.37,1.09-1.8.88-2.77.84A4,4,0,0,1,74.59,66.13Z" transform="translate(-63.77 -47.86)"/><path class="cls-10" d="M105.55,100.26a14.6,14.6,0,0,0-9.91.06,4.61,4.61,0,0,0-1.46.76c-.64.48-1,.38-1.06-.44A9.12,9.12,0,0,0,92.89,99c-.13-.51,0-.77.68-.63a32.69,32.69,0,0,0,7.84.54,15.79,15.79,0,0,0,2.84-.26c.94-.23,1.2.08,1.13.94A2.82,2.82,0,0,0,105.55,100.26Z" transform="translate(-63.77 -47.86)"/><path class="cls-11" d="M124.65,97.6a11.25,11.25,0,0,1-.77-3.11c-.42-1.57-.74-3.16-1.1-4.73-.07-.29-.37-.66.06-.8s.5.35.59.62a28,28,0,0,1,.84,2.84c.29,1.35.5,2.71.71,4.08A1,1,0,0,1,124.65,97.6Z" transform="translate(-63.77 -47.86)"/><path class="cls-12" d="M99.05,84.28a35.48,35.48,0,0,0,5.84-.49c1.25-.16,1.34-.38.79-1.44A3.16,3.16,0,0,1,107.46,78a3,3,0,0,1,4.19,1.72,3.08,3.08,0,0,1-1.77,3.74c-1.73.65-2.32,2-2.64,3.58a8.4,8.4,0,0,1-5.57,6.75A6.39,6.39,0,0,1,93.35,89a8.8,8.8,0,0,1-.27-2.12,1.74,1.74,0,0,0-2-1.88A3.82,3.82,0,0,1,87.34,81a3.16,3.16,0,0,1,2.13-2.63,3.74,3.74,0,0,1,4,1.52A3,3,0,0,1,94,82.23c-.43,1.45.61,1.65,1.48,1.78A12.8,12.8,0,0,0,99.05,84.28Z" transform="translate(-63.77 -47.86)"/><path class="cls-13" d="M87.09,78a1.76,1.76,0,0,1,1.15-2,1.87,1.87,0,0,1,2.05.61c.22.21.53.46.29.81s-.47.08-.74,0a1.4,1.4,0,0,0-1.87.77c-.11.24-.06.85-.63.63S87.18,78.18,87.09,78Z" transform="translate(-63.77 -47.86)"/><path class="cls-14" d="M110.83,76.67a.48.48,0,0,1-.26.51c-.24.11-.37-.09-.46-.24-.7-1.2-1.53-.83-2.36-.19-.26.19-.52.51-.82.28s-.07-.67.1-1a2.13,2.13,0,0,1,2.51-1.1C110.39,75.21,110.6,76,110.83,76.67Z" transform="translate(-63.77 -47.86)"/><path class="cls-15" d="M81.6,83.24a16,16,0,0,1-1.12,2.09c-.25.35-.54-.08-.51-.31a4,4,0,0,1,.9-2,.43.43,0,0,1,.55-.06C81.5,83,81.53,83.11,81.6,83.24Z" transform="translate(-63.77 -47.86)"/><path class="cls-15" d="M119,83.43c0,.36,0,.57-.28.61s-.36-.1-.44-.3c-.17-.4-.36-.8-.53-1.2s-.51-.55-.11-.81.68.06.84.41S118.87,83.09,119,83.43Z" transform="translate(-63.77 -47.86)"/><path class="cls-16" d="M116.88,83.37c-.1.29.12.93-.32.82-.67-.15-.35-.92-.48-1.42-.07-.28-.07-.65.32-.57C117.05,82.33,116.78,82.94,116.88,83.37Z" transform="translate(-63.77 -47.86)"/><path class="cls-17" d="M84.43,84.36c.08-.53.17-1,.72-1.16.3-.06.34.29.28.51-.12.47,0,1.14-.62,1.29S84.51,84.58,84.43,84.36Z" transform="translate(-63.77 -47.86)"/><path class="cls-18" d="M83.22,83.69c-.28.38-.08,1.07-.65,1.26-.31.12-.48-.26-.41-.54.12-.47.13-1.06.77-1.17C83.1,83.21,83.26,83.42,83.22,83.69Z" transform="translate(-63.77 -47.86)"/><path class="cls-19" d="M114.9,83.39c0,.3-.16.51-.44.43-.53-.14-.45-.67-.62-1a.26.26,0,0,1,.27-.39C114.72,82.45,114.71,83,114.9,83.39Z" transform="translate(-63.77 -47.86)"/><path class="cls-20" d="M92.94,60.56a3.59,3.59,0,0,1,2.76,1.08,1.2,1.2,0,0,1,.29,1.8,1.16,1.16,0,0,1-1.86,0c-1.18-1.09-2-1-3.14.33A9.1,9.1,0,0,0,90.18,65c-.35.56-.9.49-1.39.35s-.55-.73-.45-1.2C88.67,62.5,90.83,60.27,92.94,60.56Z" transform="translate(-63.77 -47.86)"/><path class="cls-21" d="M109.75,64.17c-.48.07-.77-.25-1.06-.6a2.66,2.66,0,0,0-3.88-.42c-.46.35-.8.77-1.41.19a1.16,1.16,0,0,1-.17-1.69c1-1.55,2.58-1.75,4.24-1.55a4.7,4.7,0,0,1,3.45,2.82C111.11,63.67,110.63,64.19,109.75,64.17Z" transform="translate(-63.77 -47.86)"/><path class="cls-22" d="M81.19,117.79a.66.66,0,0,0,0,.37c.2.52,1.25.52,1.27.83a.18.18,0,0,1,0,.12c-.32.4-.83.07-1.34.26.77.39.93.82.08,1.24-.28.14-.59.26-.39.71s.24.64.71.66a17.6,17.6,0,0,1,1.78.19c.37,0,.78.16.68.63s-.5.31-.8.24a11.8,11.8,0,0,0-2.72-.36c.42,1.66-.55,2.67-2.26,2.42a3.85,3.85,0,0,0-2.12.23c-.3.12-.58.29-.89,0s-.24-.64-.09-1c.46-1,0-1.18-.88-.92a12.87,12.87,0,0,1-1.64.33c-.35,0-.82.08-.9-.36a.42.42,0,0,1,.05-.31c.14-.23.57-.23.7-.23.84,0,.69-.3,2.6-.58.53-.08,1-.19,1.57-.26s.79-.14.85-.27-.09-.53-.36-.7c-.43-.27-.85.07-1.16-.21s-.26-.46-.16-.58.24-.06.63,0a2.1,2.1,0,0,0,1-.05,1,1,0,0,0,.42-1.21c-.18-.22-.54,0-.84-.31a.93.93,0,0,1-.26-.62,12.35,12.35,0,0,0,2.21,0,4.17,4.17,0,0,0,1.44-.25c0-.09-1.78.11-1.87-.24,0-.16.27-.42.58-.53.71-.23,1.28.39,1.67.1.21-.15.11-.36.38-.57s.62-.24.74-.1-.2.5,0,.73.18.11.89.22c.42.07.49.08.5.13s-.37.37-.76.44A1.75,1.75,0,0,1,81.19,117.79Z" transform="translate(-63.77 -47.86)"/><path class="cls-23" d="M84.17,115c-.49.44-.75,0-1.06-.29-.43.49-.69,1.56-1.3,1.18s-1.93-.41-1.65-1.76c-1,.19-2,.66-3,.16a11.49,11.49,0,0,0,4.71-1.89c-.79,0-1.28,0-1.78,0-.27,0-.62,0-.58-.41s.32-.3.56-.3h2.29c-.13-.36-.65-.38-.47-.81s.43-.41.78-.41.7.11.72-.22c.07-1.6.95-.44,1.14-.24.77.81,1.31.53,1.8-.22.16-.24.17-.5.58-.39.78.22.17.91.48,1.31s-.12.41-.35.44c-.46.07-1,0-1.36.34,0,.06.07.15.12.16.43.09,1.23-.12,1.16.45s-.76.2-1.2.11a3.42,3.42,0,0,0-.66,0,10.18,10.18,0,0,0,3.32,2.65c.42.24.47-.32.58-.56.47-1,.88-2,1.33-3.07.12-.27.27-.67.68-.46s.22.5.11.76q-1.81,4.35-3.67,8.68c-.11.27-.32.63-.72.43s-.23-.53-.1-.83c.5-1.17,1-2.35,1.51-3.51.25-.54.17-.87-.44-.9-.79,0-1.54-1-2.39,0-.21.24-.47-.13-.62-.37a.76.76,0,0,1-.1-.89c.39-.85-.15-1.19-.7-1.54C83.4,113.45,85.17,114,84.17,115Z" transform="translate(-63.77 -47.86)"/><path class="cls-24" d="M68.58,125.71c-.58-.21-.38-.53-.13-.9,1.21-1.73,2.38-3.48,3.59-5.21,1-1.46,2.08-2.91,3.13-4.36.17-.24.34-.66.72-.4s.08.59-.09.84q-3.3,4.81-6.63,9.63A.72.72,0,0,1,68.58,125.71Z" transform="translate(-63.77 -47.86)"/><path class="cls-25" d="M84.17,115c0-.39.4-.8-.4-1-.4-.13,0-1.15-.54-1.6.15,0,.29-.16.43-.15.74,0,1,.67,1.39,1.16s.07.56-.3.77c-.15.08-.06.59-.08.9Z" transform="translate(-63.77 -47.86)"/><path class="cls-26" d="M121.21,124.86c.79,0,1.58.51,1.89,0s-.38-1.2-.63-1.8-.51-.47-.81-.11a3.89,3.89,0,0,1-1.83,1.17c.12.22.23.38.31.55s.29.41.06.64-.45.08-.65,0a16.8,16.8,0,0,1-1.5-1c-.54-.4-.92-.55-1.25.25a3.12,3.12,0,0,1-.84,1,.56.56,0,0,1-.86,0c-.27-.3,0-.52.22-.69.67-.59.62-1-.11-1.58-1-.82-1.19-3.38-.46-4.35.42-.55.9-1,1.61-.73s1.5.46,1.74,1.43.72,2.19,1,3.3c.23.85.55.72,1,.21.13-.15.29-.28.41-.44.39-.5,1-1.07.76-1.65s-.89.17-1.38,0-.92.18-1-.32.45-.48.74-.64c1.3-.71,1.34-.89.44-2-.24-.29-.79-.59-.45-1s.78.08,1.14.28a1.08,1.08,0,0,1,.5.49,1.7,1.7,0,0,0,1.63,1.12c.32,0,.79.1.81.55s-.37.35-.61.46-.42.14-.32.49a16.13,16.13,0,0,0,1.5,3.83c.35.59,1.06,1.37.6,1.94s-1.25-.25-1.91-.37A2.43,2.43,0,0,1,121.21,124.86Z" transform="translate(-63.77 -47.86)"/><path class="cls-26" d="M113.84,112.69c-.39,0-.52.26-.75.4-.4.23-.82.65-1.28.23s-.23-.94,0-1.43.48-.88,1.16-.74c1.23.25,1.55,0,1.49-1.17,0-.27-.22-.55.18-.69a.58.58,0,0,1,.74.25c.4,1,1.08.74,1.75.38a1,1,0,0,1,1,0c.25.13.54.3.48.61s-.41.3-.7.31c-1.4,0-2.37.56-2.65,1.51.33,0,.45-.26.67-.4a1.25,1.25,0,0,1,2.08,1c0,.73.3,1,.94,1.09a3.45,3.45,0,0,1,2.33,1.07c.14.18.39.35.19.61s-.36.08-.55,0c-.52-.19-1-.36-1.57-.56a2.11,2.11,0,0,0-2.42.14,1.77,1.77,0,0,1-1.61.26c-.63-.16-1.16-.29-1.49.46a.29.29,0,0,1-.49.11.68.68,0,0,1-.2-.76c.21-.56.39-1.13.6-1.68C113.87,113.43,114.05,113.07,113.84,112.69Z" transform="translate(-63.77 -47.86)"/><path class="cls-24" d="M128.7,126.71a.33.33,0,0,1-.2.39c-.29.13-.46-.06-.58-.28-.45-.84-.91-1.68-1.33-2.53q-2.18-4.4-4.33-8.81a4.26,4.26,0,0,1-.33-.76c-.07-.21-.15-.5.16-.6s.38.11.47.29q3,6,6,12A2.19,2.19,0,0,1,128.7,126.71Z" transform="translate(-63.77 -47.86)"/><path class="cls-24" d="M112.29,119.37c0,.23,0,.51-.27.58s-.45-.16-.53-.38c-.32-.9-.61-1.8-.91-2.7-.83-2.45-1.64-4.9-2.47-7.35-.09-.26-.27-.55.09-.71s.52.16.61.41q1.74,4.95,3.45,9.91A1,1,0,0,1,112.29,119.37Z" transform="translate(-63.77 -47.86)"/><path class="cls-27" d="M119.22,97.12a16,16,0,0,1-1,6.24c-.1.28-.24.68-.65.54s-.16-.51-.08-.78a29.48,29.48,0,0,0,1-5,7.22,7.22,0,0,1,.34-1.09Z" transform="translate(-63.77 -47.86)"/><path class="cls-28" d="M108.23,100.62c1,.56.68,1.44.9,2.1a17.59,17.59,0,0,1,.4,2.43c0,.23.2.5-.09.62s-.54-.2-.6-.43A14.81,14.81,0,0,1,108.23,100.62Z" transform="translate(-63.77 -47.86)"/><path class="cls-11" d="M81.24,97.82a.57.57,0,0,1,.33.46L83,104.55c.07.29.08.62-.24.7s-.44-.3-.51-.54a39.06,39.06,0,0,1-1.33-6.14C80.82,98.28,80.8,97.91,81.24,97.82Z" transform="translate(-63.77 -47.86)"/><path class="cls-11" d="M90.86,100.52a8.59,8.59,0,0,1,.77,4.46c0,.29-.18.6-.5.57s-.31-.35-.28-.65C91,103.44,90.46,102,90.86,100.52Z" transform="translate(-63.77 -47.86)"/><path class="cls-11" d="M76.28,105.91c.36-3.39.62-6.79,1.22-10.15a4.07,4.07,0,0,1,.2-.68c.08-.25.09-.63.49-.51s.22.43.18.71c-.48,3.34-.88,6.68-1.12,10,0,.71-.16,1.42-.23,2.13,0,.25-.06.51-.37.52s-.36-.27-.37-.51C76.27,107,76.28,106.43,76.28,105.91Z" transform="translate(-63.77 -47.86)"/><path class="cls-29" d="M105.33,89.33a5.85,5.85,0,0,1-2.67,3.12A5.32,5.32,0,0,1,95,90.62c-.55-.86-.06-1.55.37-2.19s.84,0,1.31.12a9.66,9.66,0,0,0,7.07-.35C104.91,87.7,105.3,87.93,105.33,89.33Z" transform="translate(-63.77 -47.86)"/><path class="cls-30" d="M91.29,81.57c.53.67,1.08,1.32,1.59,2,4.05,5.48,11.84,4.71,15.28-1.6.16-.29.12-.87.6-.66s.13.62,0,1c-3.52,7-11.7,7.88-16.17,2A4.2,4.2,0,0,1,91.29,81.57Z" transform="translate(-63.77 -47.86)"/><path class="cls-31" d="M104.34,84.79c-2.27,2.12-6.4,2.16-8.49.28C98.73,84.88,101.55,85.29,104.34,84.79Z" transform="translate(-63.77 -47.86)"/><path class="cls-32" d="M94.16,88.83a8.07,8.07,0,0,0-.21-.89c-.11-.3-.24-.61,0-.87.05-.06.3,0,.41.09a.59.59,0,0,1,.2.9A6,6,0,0,0,94.16,88.83Z" transform="translate(-63.77 -47.86)"/><path class="cls-33" d="M77.92,122.08c.6-.47,1-.74,1.55-.54a.32.32,0,0,1,.06.29C79.16,122.34,78.65,122.18,77.92,122.08Z" transform="translate(-63.77 -47.86)"/><path class="cls-34" d="M82.38,112.83c.25,0,.38.16.36.38a.69.69,0,0,1-.66.69c-.25,0-.26-.24-.26-.43A.66.66,0,0,1,82.38,112.83Z" transform="translate(-63.77 -47.86)"/><path class="cls-35" d="M116,123c-.75-1.1-.5-2.31-1-3.32-.18-.38.2-.54.52-.65s.74-.33,1,.13a16.44,16.44,0,0,1,1.14,2.75.25.25,0,0,1-.16.37.51.51,0,0,1-.38-.22,13.33,13.33,0,0,1-.36-1.38c-.09-.46-.33-.77-.81-.66-.64.14-.18.58-.14.86A4.24,4.24,0,0,1,116,123Z" transform="translate(-63.77 -47.86)"/><path class="cls-36" d="M116.21,114.36c0,.13,0,.18,0,.2a1.62,1.62,0,0,1-1.59.57.31.31,0,0,1-.11-.5C115,114,115.63,114.27,116.21,114.36Z" transform="translate(-63.77 -47.86)"/><path class="cls-37" d="M75.67,125.27c.62-.42,1.6-.28,1.73.08s-.27.68-.55.87c-.61.42-1.57.36-1.73,0S75.34,125.49,75.67,125.27Z" transform="translate(-63.77 -47.86)"/><path class="cls-6" d="M76.88,122.88l1.63.08a1.4,1.4,0,0,1,.63,0c.18.11,0,.35-.21.46a3,3,0,0,1-2.42,0c-.12-.09-.26-.28-.11-.43A.9.9,0,0,1,76.88,122.88Z" transform="translate(-63.77 -47.86)"/><path class="cls-6" d="M78.72,119.57a1.3,1.3,0,0,1,1.58.25c.06.17-.1.39-.32.49s-.45,0-1.26-.12l-.21,0A.64.64,0,0,1,78.72,119.57Z" transform="translate(-63.77 -47.86)"/></svg>